#!OML:ASF H:\Terrain\Walking\May29\JustinRory\Justin.ASF
:FULLY-SPECIFIED
:DEGREES
1695
root 6.53235 17.9635 6.58482 -175.691 5.83119 181.421
lowerback -0.309423 1.39479 -2.87506
upperback 0.822141 1.94956 -1.62628
thorax 0.978031 0.980324 -0.0338259
lowerneck -15.9908 -4.90773 -14.901
upperneck 18.2211 -2.68841 0.961662
head 8.63951 -2.03313 2.42833
rclavicle -1.26228e-014 0
rhumerus -27.7019 -13.4815 -77.2487
rradius 38.5981
rwrist -13.2409
rhand -14.8804 23.5739
rfingers 7.12502
rthumb 11.2801 -6.10275
lclavicle -1.26228e-014 0
lhumerus -29.1328 15.6571 68.311
lradius 38.6337
lwrist -4.53909
lhand 1.07949 38.6528
lfingers 7.12502
lthumb 26.6239 66.8009
rfemur -1.88219 2.08993 11.4048
rtibia 12.017
rfoot -9.13464 -10.9249
rtoes -1.17684
lfemur -8.25539 1.23087 -23.722
ltibia 23.1784
lfoot -14.5234 0.972924
ltoes -4.82031
1696
root 6.53144 17.9656 6.58269 -175.682 5.87238 181.621
lowerback -0.383776 1.5185 -2.64122
upperback 0.847183 2.11541 -1.64333
thorax 1.05087 1.06381 -0.177374
lowerneck -15.7784 -4.9706 -14.8052
upperneck 18.5009 -2.82472 1.01162
head 8.70773 -2.09351 2.41784
rclavicle 1.64991e-014 -1.82882e-014
rhumerus -27.8894 -13.9131 -77.3179
rradius 38.7107
rwrist -13.3338
rhand -14.628 23.587
rfingers 7.12502
rthumb 11.5235 -6.0762
lclavicle 1.64991e-014 -1.82882e-014
lhumerus -28.9537 15.2714 68.6553
lradius 38.4798
lwrist -4.5093
lhand 1.07288 38.6253
lfingers 7.12502
lthumb 26.6176 66.7743
rfemur -1.80931 2.22662 11.6409
rtibia 11.8811
rfoot -8.98652 -11.0554
rtoes -1.41367
lfemur -8.27134 1.16547 -23.4951
ltibia 23.2681
lfoot -14.5914 1.04121
ltoes -2.72456
1697
root 6.53125 17.9679 6.57928 -175.717 5.88916 181.745
lowerback -0.558577 1.57718 -2.16424
upperback 0.968566 2.21227 -1.93671
thorax 1.3013 1.1197 -0.734659
lowerneck -15.5443 -4.93555 -14.3807
upperneck 18.5396 -2.95622 1.0997
head 8.67742 -2.1233 2.36861
rclavicle -1.21259e-014 6.2816e-014
rhumerus -27.9331 -14.6474 -77.7207
rradius 38.6536
rwrist -13.4335
rhand -13.8255 24.0874
rfingers 7.12502
rthumb 12.2974 -5.53096
lclavicle -1.21259e-014 6.2816e-014
lhumerus -28.6964 14.7665 68.6682
lradius 38.4312
lwrist -4.54563
lhand 0.858073 38.6551
lfingers 7.12502
lthumb 26.412 66.8352
rfemur -1.71974 2.32569 11.7877
rtibia 11.7837
rfoot -8.94818 -11.1224
rtoes -1.99294
lfemur -8.23354 1.02428 -23.3452
ltibia 23.3615
lfoot -14.6713 1.11595
ltoes -1.35663
1698
root 6.53066 17.966 6.57477 -175.742 5.85739 181.811
lowerback -0.910704 1.56009 -1.08156
upperback 1.29002 2.24336 -2.76227
thorax 1.90398 1.16742 -2.16927
lowerneck -15.8696 -4.88116 -13.7309
upperneck 18.7698 -3.16336 1.65314
head 8.81325 -2.14695 2.42609
rclavicle -1.30204e-014 2.22639e-014
rhumerus -27.6379 -15.41 -79.11
rradius 38.7307
rwrist -13.5338
rhand -13.0794 23.9297
rfingers 7.12502
rthumb 13.0167 -5.64417
lclavicle -1.30204e-014 2.22639e-014
lhumerus -28.0154 14.2893 67.946
lradius 38.5246
lwrist -4.48213
lhand 1.00127 38.4748
lfingers 7.12502
lthumb 26.5491 66.6342
rfemur -1.65276 2.25755 11.8784
rtibia 11.7104
rfoot -9.00231 -11.1662
rtoes -3.75093
lfemur -8.23117 1.0578 -23.2819
ltibia 23.4449
lfoot -14.7383 1.13568
ltoes -3.75782
1699
root 6.53038 17.9612 6.57301 -175.714 5.86556 181.935
lowerback -1.42091 1.61288 -1.15835
upperback 1.673 2.33334 -2.54084
thorax 2.57511 1.20759 -1.8737
lowerneck -16.1023 -5.0118 -14.1368
upperneck 18.8011 -3.23447 1.81125
head 8.88487 -2.19425 2.53173
rclavicle 4.37326e-015 1.74931e-014
rhumerus -27.0736 -15.1687 -79.0891
rradius 38.6218
rwrist -13.7931
rhand -12.8345 24.0042
rfingers 7.12502
rthumb 13.2528 -5.55449
lclavicle 4.37326e-015 1.74931e-014
lhumerus -27.6247 15.0357 68.565
lradius 38.5936
lwrist -4.95338
lhand 1.48 38.4308
lfingers 7.12502
lthumb 27.0072 66.5201
rfemur -1.68103 2.23037 12.0299
rtibia 11.7505
rfoot -9.17829 -11.1861
rtoes -4.93578
lfemur -8.31003 1.30457 -23.1452
ltibia 23.4835
lfoot -14.7635 0.9972
ltoes -5.72683
1700
root 6.52942 17.9567 6.56894 -175.724 5.92801 182.015
lowerback -1.31886 1.63217 -0.796284
upperback 1.58849 2.35353 -2.72726
thorax 2.45377 1.22814 -2.27209
lowerneck -15.9397 -4.98124 -14.1076
upperneck 18.9918 -3.2838 2.08566
head 8.92687 -2.19399 2.61963
rclavicle 1.88845e-014 -4.92986e-014
rhumerus -27.3298 -15.2857 -79.4451
rradius 38.4755
rwrist -13.8091
rhand -12.9898 24.3779
rfingers 7.12502
rthumb 13.103 -5.19043
lclavicle 1.88845e-014 -4.92986e-014
lhumerus -27.8817 14.7942 68.4721
lradius 38.7112
lwrist -5.01551
lhand 1.71729 38.5279
lfingers 7.12502
lthumb 27.2342 66.5818
rfemur -1.69025 2.25312 12.1057
rtibia 11.8278
rfoot -9.14834 -11.0697
rtoes -3.76802
lfemur -8.32941 1.61587 -23.0439
ltibia 23.5176
lfoot -14.9576 0.776313
ltoes -6.33734
1701
root 6.52733 17.9575 6.56212 -175.869 5.94733 181.911
lowerback -1.00955 1.64247 -0.68229
upperback 1.40361 2.36045 -2.89973
thorax 2.10197 1.23629 -2.52622
lowerneck -15.6192 -4.90567 -14.0787
upperneck 19.4185 -3.23116 2.22033
head 9.01386 -2.1583 2.67773
rclavicle 1.94809e-014 9.54166e-015
rhumerus -27.9325 -15.4715 -79.6156
rradius 38.3897
rwrist -13.5121
rhand -13.0319 24.4297
rfingers 7.12502
rthumb 13.0624 -5.14127
lclavicle 1.94809e-014 9.54166e-015
lhumerus -28.2951 14.3197 68.4736
lradius 38.5904
lwrist -4.54799
lhand 1.43069 38.0298
lfingers 7.12502
lthumb 26.96 66.1264
rfemur -1.55775 2.19308 11.9826
rtibia 11.8601
rfoot -8.86678 -10.9624
rtoes -2.98598
lfemur -8.13569 1.57027 -23.1667
ltibia 23.5666
lfoot -15.1828 0.833222
ltoes -6.84952
1702
root 6.52601 17.9582 6.55929 -175.97 5.91272 181.9
lowerback -1.34974 1.59862 -1.021
upperback 1.68673 2.30976 -2.55471
thorax 2.5545 1.19876 -1.96769
lowerneck -15.6261 -4.89647 -14.6091
upperneck 19.522 -3.03899 2.17718
head 9.05111 -2.10494 2.77326
rclavicle -1.09332e-015 1.27222e-014
rhumerus -27.6251 -15.2665 -79.3291
rradius 38.1695
rwrist -13.2039
rhand -12.8035 24.4708
rfingers 7.12502
rthumb 13.2826 -5.08595
lclavicle -1.09332e-015 1.27222e-014
lhumerus -28.2542 15.111 69.1506
lradius 38.4034
lwrist -4.43437
lhand 1.43481 37.3816
lfingers 7.12502
lthumb 26.9639 65.4776
rfemur -1.45271 2.18215 11.9741
rtibia 11.9168
rfoot -8.77987 -10.9661
rtoes -2.94261
lfemur -7.96551 1.22566 -23.1959
ltibia 23.5741
lfoot -15.0604 1.07421
ltoes -4.88409
1703
root 6.52593 17.9566 6.55851 -175.933 5.87261 181.996
lowerback -1.0306 1.47489 -0.608314
upperback 1.4482 2.12521 -2.74483
thorax 2.14657 1.11509 -2.41401
lowerneck -15.7023 -4.72693 -14.5111
upperneck 19.9054 -2.80795 2.25001
head 9.17591 -1.98934 2.81749
rclavicle -3.38928e-014 -3.33958e-014
rhumerus -28.0357 -15.3085 -79.7546
rradius 38.039
rwrist -12.8164
rhand -12.5287 24.5539
rfingers 7.12502
rthumb 13.5475 -4.98533
lclavicle -3.38928e-014 -3.33958e-014
lhumerus -28.9094 15.1144 68.8858
lradius 38.5537
lwrist -3.80542
lhand 0.812778 37.3292
lfingers 7.12502
lthumb 26.3686 65.5158
rfemur -1.49309 2.19856 12.0791
rtibia 11.999
rfoot -8.90607 -11.2219
rtoes -3.59191
lfemur -7.96654 1.07307 -23.0973
ltibia 23.5224
lfoot -14.8997 1.17567
ltoes -2.85169
1704
root 6.52335 17.9557 6.5541 -175.976 5.75915 181.881
lowerback -1.39329 1.4295 -1.27523
upperback 1.77209 2.07704 -2.26396
thorax 2.64006 1.07022 -1.53252
lowerneck -15.4218 -4.78931 -14.3
upperneck 19.1124 -2.70363 0.976422
head 8.83218 -2.01833 2.3524
rclavicle 1.26228e-014 2.38542e-015
rhumerus -27.7102 -14.9388 -79.2537
rradius 37.9349
rwrist -12.8493
rhand -12.2344 24.6629
rfingers 7.12502
rthumb 13.8311 -4.85725
lclavicle 1.26228e-014 2.38542e-015
lhumerus -28.7302 15.8908 69.9995
lradius 38.3575
lwrist -3.68394
lhand -0.11917 37.3283
lfingers 7.12502
lthumb 25.4762 65.6454
rfemur -1.46219 2.06113 11.9529
rtibia 12.0901
rfoot -9.16662 -11.5154
rtoes -5.38755
lfemur -7.8628 0.962134 -23.2347
ltibia 23.4375
lfoot -15.0059 1.21479
ltoes -4.71461
1705
root 6.52041 17.9571 6.5476 -176.041 5.68519 181.753
lowerback -1.6153 1.42934 -1.51324
upperback 1.99847 2.09865 -2.18198
thorax 2.98762 1.07571 -1.30487
lowerneck -16.1262 -4.86916 -15.055
upperneck 19.9028 -2.64792 1.78486
head 9.25425 -1.99388 2.75649
rclavicle -2.06736e-014 3.57812e-014
rhumerus -27.7908 -14.7632 -79.2185
rradius 38.1268
rwrist -13.1395
rhand -11.9449 24.7575
rfingers 7.12502
rthumb 14.1101 -4.7434
lclavicle -2.06736e-014 3.57812e-014
lhumerus -28.4944 16.5111 70.3938
lradius 38.0096
lwrist -4.66326
lhand 0.483222 37.3221
lfingers 7.12502
lthumb 26.0531 65.5556
rfemur -1.44671 1.91769 11.8011
rtibia 12.2414
rfoot -9.39403 -11.3113
rtoes -5.90365
lfemur -7.69246 0.818939 -23.3975
ltibia 23.3135
lfoot -15.0811 1.28227
ltoes -6.79707
